<!DOCTYPE svg PUBLIC "-//W3C//DTD SVG 1.1//EN" "http://www.w3.org/Graphics/SVG/1.1/DTD/svg11.dtd">
<!-- Uploaded to: SVG Repo, www.svgrepo.com, Transformed by: SVG Repo Mixer Tools -->
<svg fill="#ff4800" width="100px" height="100px" viewBox="0 0 24.00 24.00" xmlns="http://www.w3.org/2000/svg" transform="matrix(1, 0, 0, 1, 0, 0)rotate(0)">
<g id="SVGRepo_bgCarrier" stroke-width="0"/>
<g id="SVGRepo_tracerCarrier" stroke-linecap="round" stroke-linejoin="round" stroke="#CCCCCC" stroke-width="0.8160000000000001"/>
<g id="SVGRepo_iconCarrier">
<path d="M15.29,8.85l-4.73,4.74L8.71,11.73a1,1,0,0,0-1.42,1.42l2.56,2.56a1,1,0,0,0,1.42,0l5.44-5.44a1,1,0,1,0-1.42-1.42ZM12,2A10,10,0,0,0,2,12a9.89,9.89,0,0,0,2.26,6.33l-2,2a1,1,0,0,0-.21,1.09A1,1,0,0,0,3,22h9A10,10,0,0,0,12,2Zm0,18H5.41l.93-.93a1,1,0,0,0,0-1.41A8,8,0,1,1,12,20Z"/>
</g>
</svg>